<svg width="473" height="350" viewBox="0 0 473 350" fill="none" xmlns="http://www.w3.org/2000/svg">
<g clip-path="url(#clip0)">
<g opacity="0.1">
<path opacity="0.1" d="M378.736 247.968C378.736 247.968 344.97 243.583 370.152 298.234C370.152 298.234 393.102 288.399 394.016 266.218C394.202 261.901 392.798 257.666 390.07 254.315C387.342 250.964 383.48 248.73 379.215 248.036L378.736 247.968Z" fill="#FF0079"/>
<path opacity="0.1" d="M379.232 247.886C379.232 247.886 386.876 278.358 370.178 298.238" stroke="#535461" stroke-miterlimit="10"/>
<path opacity="0.1" d="M369.721 301.053C369.721 301.053 381.879 271.089 404.583 259.975C414.143 255.374 421.951 247.794 426.834 238.375C429.116 233.888 430.982 229.203 432.409 224.376" stroke="#535461" stroke-width="2" stroke-miterlimit="10"/>
<path opacity="0.1" d="M446.675 217.292C444.308 220.267 432.059 224.622 432.059 224.622C432.059 224.622 433.534 211.687 435.901 208.734C436.441 207.963 437.133 207.311 437.934 206.817C438.736 206.324 439.63 206 440.561 205.865C441.493 205.73 442.442 205.787 443.35 206.032C444.259 206.278 445.108 206.706 445.844 207.292C446.581 207.878 447.19 208.608 447.634 209.438C448.078 210.268 448.347 211.18 448.425 212.118C448.504 213.056 448.389 214 448.089 214.892C447.788 215.784 447.309 216.605 446.679 217.305L446.675 217.292Z" fill="#FF0079"/>
<path opacity="0.1" d="M442.471 240.854C438.867 242.065 426.226 239.052 426.226 239.052C426.226 239.052 434.482 229.015 438.087 227.803C438.96 227.445 439.897 227.271 440.84 227.289C441.784 227.308 442.713 227.52 443.571 227.913C444.429 228.305 445.198 228.869 445.829 229.57C446.46 230.272 446.941 231.095 447.242 231.989C447.542 232.884 447.656 233.83 447.576 234.77C447.496 235.71 447.224 236.624 446.777 237.455C446.33 238.286 445.717 239.016 444.977 239.601C444.236 240.185 443.383 240.612 442.471 240.854Z" fill="#FF0079"/>
<path opacity="0.1" d="M419.681 268.709C415.961 267.938 406.566 258.953 406.566 258.953C406.566 258.953 418.759 254.456 422.484 255.228C424.169 255.698 425.613 256.79 426.523 258.285C427.434 259.779 427.742 261.564 427.385 263.277C427.029 264.99 426.035 266.504 424.605 267.512C423.174 268.52 421.414 268.946 419.681 268.705V268.709Z" fill="#FF0079"/>
<path opacity="0.1" d="M397.693 285.903C393.895 285.769 383.117 278.505 383.117 278.505C383.117 278.505 394.378 272.003 398.176 272.141C399.918 272.318 401.527 273.151 402.677 274.47C403.827 275.789 404.433 277.497 404.372 279.246C404.311 280.995 403.586 282.656 402.346 283.891C401.106 285.126 399.443 285.844 397.693 285.899V285.903Z" fill="#FF0079"/>
<path opacity="0.1" d="M414.456 230.614C414.943 234.387 423.174 244.441 423.174 244.441C423.174 244.441 428.593 232.628 428.11 228.855C428.051 227.913 427.799 226.994 427.37 226.153C426.941 225.312 426.344 224.568 425.616 223.968C424.888 223.367 424.045 222.922 423.138 222.66C422.231 222.399 421.28 222.326 420.344 222.447C419.408 222.567 418.507 222.879 417.696 223.361C416.885 223.844 416.182 224.489 415.63 225.254C415.078 226.02 414.689 226.891 414.487 227.813C414.285 228.735 414.275 229.688 414.456 230.614Z" fill="#FF0079"/>
<path opacity="0.1" d="M388.993 251.067C390.584 254.516 401.449 261.652 401.449 261.652C401.449 261.652 403.087 248.757 401.496 245.307C401.157 244.427 400.641 243.626 399.98 242.953C399.319 242.28 398.527 241.75 397.653 241.395C396.779 241.04 395.842 240.868 394.899 240.89C393.956 240.912 393.027 241.127 392.171 241.522C391.314 241.917 390.547 242.483 389.918 243.186C389.289 243.889 388.811 244.714 388.513 245.609C388.215 246.504 388.104 247.45 388.187 248.39C388.269 249.33 388.544 250.242 388.993 251.072V251.067Z" fill="#FF0079"/>
<path opacity="0.1" d="M366.971 274.323C367.954 277.996 377.46 286.86 377.46 286.86C377.46 286.86 381.254 274.431 380.267 270.757C380.083 269.831 379.711 268.952 379.174 268.175C378.637 267.399 377.946 266.74 377.144 266.241C376.343 265.742 375.447 265.413 374.513 265.275C373.578 265.136 372.626 265.191 371.714 265.436C370.801 265.68 369.949 266.11 369.21 266.697C368.47 267.284 367.859 268.017 367.414 268.851C366.97 269.684 366.701 270.599 366.625 271.541C366.548 272.482 366.666 273.429 366.971 274.323Z" fill="#FF0079"/>
<path opacity="0.25" d="M446.675 217.292C444.308 220.267 432.059 224.622 432.059 224.622C432.059 224.622 433.534 211.687 435.901 208.734C436.441 207.963 437.133 207.311 437.934 206.817C438.736 206.324 439.63 206 440.561 205.865C441.493 205.73 442.442 205.787 443.35 206.032C444.259 206.278 445.108 206.706 445.844 207.292C446.581 207.878 447.19 208.608 447.634 209.438C448.078 210.268 448.347 211.18 448.425 212.118C448.504 213.056 448.389 214 448.089 214.892C447.788 215.784 447.309 216.605 446.679 217.305L446.675 217.292Z" fill="black"/>
<path opacity="0.25" d="M442.471 240.854C438.867 242.065 426.226 239.052 426.226 239.052C426.226 239.052 434.482 229.015 438.087 227.803C438.96 227.445 439.897 227.271 440.84 227.289C441.784 227.308 442.713 227.52 443.571 227.913C444.429 228.305 445.198 228.869 445.829 229.57C446.46 230.272 446.941 231.095 447.242 231.989C447.542 232.884 447.656 233.83 447.576 234.77C447.496 235.71 447.224 236.624 446.777 237.455C446.33 238.286 445.717 239.016 444.977 239.601C444.236 240.185 443.383 240.612 442.471 240.854Z" fill="black"/>
<path opacity="0.25" d="M419.681 268.709C415.961 267.938 406.566 258.953 406.566 258.953C406.566 258.953 418.759 254.456 422.484 255.228C424.169 255.698 425.613 256.79 426.523 258.285C427.434 259.779 427.742 261.564 427.385 263.277C427.029 264.99 426.035 266.504 424.605 267.512C423.174 268.52 421.414 268.946 419.681 268.705V268.709Z" fill="black"/>
<path opacity="0.25" d="M397.693 285.903C393.895 285.769 383.117 278.505 383.117 278.505C383.117 278.505 394.378 272.003 398.176 272.141C399.918 272.318 401.527 273.151 402.677 274.47C403.827 275.789 404.433 277.497 404.372 279.246C404.311 280.995 403.586 282.656 402.346 283.891C401.106 285.126 399.443 285.844 397.693 285.899V285.903Z" fill="black"/>
<path opacity="0.25" d="M414.456 230.614C414.943 234.387 423.174 244.441 423.174 244.441C423.174 244.441 428.593 232.628 428.11 228.855C428.051 227.913 427.799 226.994 427.37 226.153C426.941 225.312 426.344 224.568 425.616 223.968C424.888 223.367 424.045 222.922 423.138 222.66C422.231 222.399 421.28 222.326 420.344 222.447C419.408 222.567 418.507 222.879 417.696 223.361C416.885 223.844 416.182 224.489 415.63 225.254C415.078 226.02 414.689 226.891 414.487 227.813C414.285 228.735 414.275 229.688 414.456 230.614Z" fill="black"/>
<path opacity="0.25" d="M388.993 251.067C390.584 254.516 401.449 261.652 401.449 261.652C401.449 261.652 403.087 248.757 401.496 245.307C401.157 244.427 400.641 243.626 399.98 242.953C399.319 242.28 398.527 241.75 397.653 241.395C396.779 241.04 395.842 240.868 394.899 240.89C393.956 240.912 393.027 241.127 392.171 241.522C391.314 241.917 390.547 242.483 389.918 243.186C389.289 243.889 388.811 244.714 388.513 245.609C388.215 246.504 388.104 247.45 388.187 248.39C388.269 249.33 388.544 250.242 388.993 251.072V251.067Z" fill="black"/>
<path opacity="0.25" d="M366.971 274.323C367.954 277.996 377.46 286.86 377.46 286.86C377.46 286.86 381.254 274.431 380.267 270.757C380.083 269.831 379.711 268.952 379.174 268.175C378.637 267.399 377.946 266.74 377.144 266.241C376.343 265.742 375.447 265.413 374.513 265.275C373.578 265.136 372.626 265.191 371.714 265.436C370.801 265.68 369.949 266.11 369.21 266.697C368.47 267.284 367.859 268.017 367.414 268.851C366.97 269.684 366.701 270.599 366.625 271.541C366.548 272.482 366.666 273.429 366.971 274.323Z" fill="black"/>
<path opacity="0.1" d="M385.915 314.686C385.915 314.686 398.073 284.722 420.776 273.607C430.332 269.003 438.136 261.422 443.015 252.003C445.296 247.517 447.162 242.831 448.589 238.004" stroke="#535461" stroke-width="2" stroke-miterlimit="10"/>
<path opacity="0.1" d="M462.847 230.916C460.48 233.891 448.231 238.245 448.231 238.245C448.231 238.245 449.706 225.311 452.073 222.358C453.248 221.052 454.877 220.243 456.628 220.097C458.379 219.952 460.119 220.479 461.494 221.573C462.869 222.666 463.775 224.243 464.028 225.982C464.28 227.721 463.859 229.49 462.851 230.929L462.847 230.916Z" fill="#FF0079"/>
<path opacity="0.1" d="M458.652 254.478C455.048 255.689 442.407 252.675 442.407 252.675C442.407 252.675 450.663 242.639 454.267 241.427C455.961 240.978 457.762 241.19 459.305 242.02C460.848 242.851 462.017 244.237 462.575 245.898C463.133 247.559 463.038 249.37 462.309 250.963C461.581 252.557 460.273 253.813 458.652 254.478Z" fill="#FF0079"/>
<path opacity="0.1" d="M435.862 282.35C432.141 281.579 422.747 272.594 422.747 272.594C422.747 272.594 434.939 268.097 438.664 268.869C440.35 269.339 441.794 270.431 442.704 271.926C443.614 273.42 443.922 275.205 443.566 276.918C443.21 278.631 442.216 280.145 440.785 281.153C439.355 282.161 437.595 282.587 435.862 282.346V282.35Z" fill="#FF0079"/>
<path opacity="0.1" d="M413.87 299.523C410.071 299.389 399.293 292.124 399.293 292.124C399.293 292.124 410.554 285.632 414.353 285.765C416.094 285.942 417.703 286.775 418.853 288.094C420.004 289.413 420.61 291.121 420.548 292.87C420.487 294.619 419.763 296.28 418.523 297.515C417.282 298.75 415.619 299.468 413.87 299.523Z" fill="#FF0079"/>
<path opacity="0.1" d="M430.632 244.255C431.119 248.028 439.35 258.082 439.35 258.082C439.35 258.082 444.769 246.269 444.286 242.496C444.227 241.554 443.975 240.635 443.546 239.794C443.117 238.953 442.52 238.21 441.792 237.609C441.064 237.008 440.221 236.563 439.314 236.301C438.407 236.04 437.456 235.967 436.52 236.088C435.584 236.208 434.683 236.52 433.872 237.003C433.061 237.485 432.358 238.13 431.806 238.895C431.254 239.661 430.865 240.532 430.663 241.454C430.461 242.376 430.451 243.329 430.632 244.255Z" fill="#FF0079"/>
<path opacity="0.1" d="M405.174 264.674C406.764 268.123 417.629 275.258 417.629 275.258C417.629 275.258 419.267 262.363 417.677 258.914C416.842 257.373 415.452 256.207 413.789 255.654C412.126 255.101 410.314 255.201 408.723 255.935C407.131 256.669 405.879 257.981 405.219 259.605C404.56 261.229 404.544 263.043 405.174 264.678V264.674Z" fill="#FF0079"/>
<path opacity="0.1" d="M383.151 287.955C384.134 291.629 393.641 300.493 393.641 300.493C393.641 300.493 397.435 288.063 396.447 284.39C395.883 282.733 394.71 281.353 393.166 280.529C391.621 279.704 389.822 279.498 388.131 279.952C386.44 280.405 384.985 281.484 384.061 282.97C383.136 284.456 382.811 286.238 383.151 287.955Z" fill="#FF0079"/>
</g>
<path opacity="0.1" d="M5.10901 185.375C12.5935 217.366 28.4378 245.019 53.4782 258.423C105.516 286.278 222.876 271.913 310.466 255.405C354.722 247.094 394.894 224.133 424.514 190.217L5.10901 185.375Z" fill="#FF0079"/>
<path opacity="0.1" d="M464.42 34.7969H416.362C415.26 34.7969 414.203 34.3593 413.424 33.5803C412.645 32.8012 412.208 31.7447 412.208 30.6429C412.208 29.5412 412.645 28.4847 413.424 27.7056C414.203 26.9266 415.26 26.489 416.362 26.489H424.67C423.568 26.489 422.511 26.0513 421.732 25.2723C420.953 24.4933 420.516 23.4367 420.516 22.335C420.516 21.2333 420.953 20.1767 421.732 19.3977C422.511 18.6186 423.568 18.181 424.67 18.181H418.737C417.635 18.181 416.579 17.7433 415.8 16.9643C415.021 16.1853 414.583 15.1287 414.583 14.027C414.583 12.9253 415.021 11.8687 415.8 11.0897C416.579 10.3106 417.635 9.873 418.737 9.873H443.821C438.255 7.28619 431.749 5.44524 424.256 4.47949C355.86 -4.30704 331.441 1.50466 322.827 7.49744C312.199 14.8699 300.343 20.2935 287.672 22.9062C245.468 31.6022 166.548 42.0788 95.0182 19.5434C59.4667 8.33384 33.0423 27.2693 17.2067 58.8974H472.763C472.168 49.7056 470.387 41.2209 467.119 33.7881C466.37 34.4374 465.412 34.7955 464.42 34.7969Z" fill="#FF0079"/>
<path opacity="0.1" d="M1.03042 118.605C-0.814622 137.211 -0.186889 155.979 2.89724 174.42L424.842 189.85C436.588 176.339 446.45 161.3 454.159 145.142L1.03042 118.605ZM167.915 158.421H159.607C160.708 158.421 161.765 158.858 162.544 159.637C163.323 160.416 163.761 161.473 163.761 162.575C163.761 163.676 163.323 164.733 162.544 165.512C161.765 166.291 160.708 166.729 159.607 166.729H111.548C110.446 166.729 109.39 166.291 108.611 165.512C107.832 164.733 107.394 163.676 107.394 162.575C107.394 161.473 107.832 160.416 108.611 159.637C109.39 158.858 110.446 158.421 111.548 158.421H119.856C118.754 158.421 117.698 157.983 116.919 157.204C116.14 156.425 115.702 155.368 115.702 154.267C115.702 153.165 116.14 152.108 116.919 151.329C117.698 150.55 118.754 150.113 119.856 150.113H113.924C112.822 150.113 111.765 149.675 110.986 148.896C110.207 148.117 109.77 147.06 109.77 145.959C109.77 144.857 110.207 143.8 110.986 143.021C111.765 142.242 112.822 141.805 113.924 141.805H161.982C163.084 141.805 164.141 142.242 164.92 143.021C165.699 143.8 166.136 144.857 166.136 145.959C166.136 147.06 165.699 148.117 164.92 148.896C164.141 149.675 163.084 150.113 161.982 150.113H167.915C169.017 150.113 170.073 150.55 170.852 151.329C171.631 152.108 172.069 153.165 172.069 154.267C172.069 155.368 171.631 156.425 170.852 157.204C170.073 157.983 169.017 158.421 167.915 158.421Z" fill="#FF0079"/>
<path opacity="0.1" d="M472.784 59.1862L12.1192 70.3957C6.51875 84.8 2.82391 101.084 1.09937 117.963H464.714C467.741 108.048 469.979 97.909 471.409 87.6412C472.789 77.7207 473.341 68.1237 472.784 59.1862ZM94.6215 95.906H86.3135C87.4152 95.906 88.4718 96.3437 89.2508 97.1227C90.0299 97.9017 90.4675 98.9583 90.4675 100.06C90.4675 101.162 90.0299 102.218 89.2508 102.997C88.4718 103.776 87.4152 104.214 86.3135 104.214H38.2547C37.153 104.214 36.0964 103.776 35.3174 102.997C34.5384 102.218 34.1007 101.162 34.1007 100.06C34.1007 98.9583 34.5384 97.9017 35.3174 97.1227C36.0964 96.3437 37.153 95.906 38.2547 95.906H46.5627C45.461 95.906 44.4044 95.4684 43.6254 94.6893C42.8464 93.9103 42.4087 92.8537 42.4087 91.752C42.4087 90.6503 42.8464 89.5937 43.6254 88.8147C44.4044 88.0357 45.461 87.598 46.5627 87.598H40.6303C39.5286 87.598 38.472 87.1604 37.693 86.3814C36.9139 85.6023 36.4763 84.5458 36.4763 83.444C36.4763 82.3423 36.9139 81.2858 37.693 80.5067C38.472 79.7277 39.5286 79.2901 40.6303 79.2901H88.6891C89.7908 79.2901 90.8474 79.7277 91.6264 80.5067C92.4054 81.2858 92.8431 82.3423 92.8431 83.444C92.8431 84.5458 92.4054 85.6023 91.6264 86.3814C90.8474 87.1604 89.7908 87.598 88.6891 87.598H94.6215C95.7232 87.598 96.7798 88.0357 97.5588 88.8147C98.3379 89.5937 98.7755 90.6503 98.7755 91.752C98.7755 92.8537 98.3379 93.9103 97.5588 94.6893C96.7798 95.4684 95.7232 95.906 94.6215 95.906Z" fill="#FF0079"/>
<path d="M404.699 349.78C404.699 349.78 385.488 244.411 348.854 227.312C317.812 212.813 284.244 203.039 274.699 200.387C273.273 198.091 271.626 195.941 269.779 193.968C256.733 180.348 248.895 180.603 247.628 180.771C247.026 178.07 246.594 175.334 246.334 172.579C246.295 172.148 246.257 171.747 246.222 171.32L246.334 171.264C246.257 170.449 246.188 169.609 246.127 168.742C251.453 165.9 256.356 162.329 260.695 158.132C260.751 158.317 260.799 158.503 260.859 158.692C270.261 150.745 279.469 142.582 288.482 134.204C291.069 131.785 293.785 129.16 294.665 125.749C294.946 124.576 295.055 123.367 294.988 122.162C295.104 119.575 294.492 116.933 294.389 114.311C294.389 113.88 294.436 113.479 294.492 113.07C295.096 108.78 298.079 105.257 300.528 101.657C306.646 92.5599 309.84 81.8107 309.681 70.8485C309.748 65.5958 309.021 60.3632 307.525 55.3276C305.616 48.9382 301.64 42.2254 295.023 40.8285C292.462 40.2896 289.801 40.6259 287.189 40.4578C276.372 39.7679 268.275 30.9728 259.648 24.5273C249.119 16.6988 236.667 11.8659 223.613 10.5413C219.539 10.1101 215.331 10.08 211.455 11.3734C202.751 14.2706 197.465 23.2166 189.079 26.8942C182.88 29.6276 175.714 29.1836 169.247 31.2358C159.62 34.2968 151.45 44.1698 151.234 54.3144C151.234 54.6895 151.234 55.0646 151.234 55.4397C151.234 55.5044 151.234 55.569 151.234 55.6294C151.126 60.7556 152.959 65.9767 153.105 71.2236C153.105 71.6978 153.112 72.1735 153.127 72.6506C153.079 78.3158 152.403 83.9981 150.337 89.3226C149.225 92.1897 147.794 95.5094 148.026 98.3765C147.897 100.131 148.238 101.778 149.458 103.119L151.54 101.282C150.842 105.062 150.491 108.898 150.493 112.742C150.493 132.117 159.305 149.466 173.205 161.141C173.285 162.432 173.363 163.814 173.438 165.289C173.765 171.678 174.024 179.693 173.951 188.428L153.618 207.117L101.347 230.83C101.347 230.83 53.5429 240.927 63.8384 308.085L68.7534 349.784H112.397L112.298 350.004H177.076L177.115 349.784H331.238L331.208 350.004H337.244V349.784L404.699 349.78ZM248.011 181.84C249.333 184.573 250.373 187.433 251.116 190.376C249.59 187.544 248.463 184.515 247.766 181.374L247.83 181.491L248.011 181.84ZM173.933 190.463C173.933 191.285 173.919 192.114 173.89 192.95L173.787 193.097C173.78 192.209 173.829 191.322 173.933 190.441V190.463Z" fill="#FF0079"/>
<path d="M265.063 201.038L256.44 283.385L210.309 298.044C210.309 298.044 150.381 286.834 165.901 254.499C176.943 231.498 176.637 190.394 175.542 168.578C175.11 159.723 174.524 154.045 174.524 154.045C174.524 154.045 252.991 85.4941 246.524 147.146C245.274 159.085 245.2 168.419 245.895 175.714C248.805 206.083 265.063 201.038 265.063 201.038Z" fill="#FDC2CC"/>
<path opacity="0.03" d="M265.063 201.038L256.44 283.385L210.309 298.044C210.309 298.044 150.381 286.834 165.901 254.499C176.943 231.498 176.637 190.394 175.542 168.578C175.11 159.723 174.524 154.045 174.524 154.045C174.524 154.045 252.991 85.4941 246.524 147.146C245.274 159.085 245.2 168.419 245.895 175.714C248.805 206.083 265.063 201.038 265.063 201.038Z" fill="black"/>
<path opacity="0.1" d="M246.524 145.853C245.274 157.791 245.2 167.125 245.894 174.42C234.817 180.468 222.169 183.023 209.613 181.749C197.056 180.476 185.179 175.433 175.542 167.285C175.11 158.429 174.524 152.751 174.524 152.751C174.524 152.751 252.991 84.2007 246.524 145.853Z" fill="black"/>
<path d="M215.913 179.486C250.439 179.486 278.428 151.497 278.428 116.971C278.428 82.4455 250.439 54.4567 215.913 54.4567C181.387 54.4567 153.398 82.4455 153.398 116.971C153.398 151.497 181.387 179.486 215.913 179.486Z" fill="#FDC2CC"/>
<path opacity="0.03" d="M215.913 179.486C250.439 179.486 278.428 151.497 278.428 116.971C278.428 82.4455 250.439 54.4567 215.913 54.4567C181.387 54.4567 153.398 82.4455 153.398 116.971C153.398 151.497 181.387 179.486 215.913 179.486Z" fill="black"/>
<path opacity="0.1" d="M112.872 284.248C112.872 284.248 133.135 325.637 134.213 349.996L112.872 284.248Z" fill="black"/>
<path opacity="0.1" d="M333.614 307.964L327.793 350H333.614V307.964Z" fill="black"/>
<path opacity="0.1" d="M117.398 349.996L149.518 276.918C149.518 276.918 158.572 259.673 160.728 242.427C162.883 225.182 174.524 198.02 174.524 198.02C174.524 198.02 203.41 161.374 216.775 166.548C230.141 171.721 205.135 191.122 205.135 191.122C205.135 191.122 241.781 205.35 216.775 247.601C191.77 289.852 191.338 282.092 191.338 282.092L179.051 349.996H117.398Z" fill="black"/>
<path d="M116.536 349.996L148.656 276.918C148.656 276.918 157.71 259.673 159.865 242.427C161.236 231.464 166.44 216.49 170.049 207.035C172.404 200.854 175.87 195.156 180.275 190.221C189.614 179.77 206.575 162.917 215.913 166.539C229.278 171.713 204.272 191.114 204.272 191.114C204.272 191.114 240.919 205.341 215.913 247.592C190.907 289.844 190.476 282.083 190.476 282.083L178.189 349.987L116.536 349.996Z" fill="#FDC2CC"/>
<path opacity="0.15" d="M235.099 83.1272C235.813 83.1272 236.392 82.5481 236.392 81.8338C236.392 81.1195 235.813 80.5404 235.099 80.5404C234.384 80.5404 233.805 81.1195 233.805 81.8338C233.805 82.5481 234.384 83.1272 235.099 83.1272Z" fill="white"/>
<path opacity="0.15" d="M229.063 85.714C229.777 85.714 230.356 85.1349 230.356 84.4206C230.356 83.7063 229.777 83.1272 229.063 83.1272C228.348 83.1272 227.769 83.7063 227.769 84.4206C227.769 85.1349 228.348 85.714 229.063 85.714Z" fill="white"/>
<path opacity="0.1" d="M171.502 38.19C177.74 36.1723 184.664 36.6077 190.649 33.9261C198.741 30.2959 203.841 21.5094 212.24 18.6639C215.982 17.3963 220.043 17.4438 223.971 17.849C236.601 19.1635 248.629 23.9159 258.747 31.5893C267.072 37.9227 274.884 46.5583 285.322 47.2352C287.844 47.3991 290.409 47.0671 292.88 47.5974C299.278 48.9684 303.111 55.5604 304.952 61.8248C307.081 69.2489 307.581 77.0457 306.415 84.6807C305.25 92.3158 302.447 99.6087 298.2 106.059C295.837 109.595 292.957 113.057 292.375 117.269C291.806 121.399 293.565 125.68 292.539 129.724C291.677 133.074 289.09 135.652 286.572 138.028C277.878 146.251 268.992 154.263 259.915 162.064C255.198 147.078 262.118 130.94 261.04 115.268C260.609 109.164 258.453 102.498 253.069 99.6182C248.029 96.9279 241.587 98.3248 236.487 95.738C230.796 92.8709 228.459 86.0805 224.157 81.3811C216.827 73.362 204.104 72.3273 193.856 75.9488C183.608 79.5704 175.231 87.0204 167.126 94.285L152.394 107.499C149.518 104.257 151.7 99.2819 153.256 95.2292C155.576 89.1545 156.084 82.6056 155.929 76.1558C155.804 70.9822 154.019 65.8732 154.123 60.8375C154.33 50.9042 162.211 41.195 171.502 38.19Z" fill="black"/>
<path d="M171.502 36.8966C177.74 34.8789 184.664 35.3143 190.649 32.6327C198.741 29.0025 203.841 20.216 212.24 17.3705C215.982 16.1029 220.043 16.1504 223.971 16.5556C236.601 17.8701 248.629 22.6225 258.747 30.2959C267.072 36.6293 274.884 45.2649 285.322 45.9418C287.844 46.1057 290.409 45.7737 292.88 46.304C299.278 47.675 303.111 54.2671 304.952 60.5315C307.081 67.9555 307.581 75.7523 306.415 83.3874C305.25 91.0224 302.447 98.3153 298.2 104.766C295.837 108.301 292.957 111.763 292.375 115.975C291.806 120.106 293.565 124.387 292.539 128.431C291.677 131.781 289.09 134.359 286.572 136.735C277.878 144.958 268.992 152.97 259.915 160.77C255.198 145.784 262.118 129.647 261.04 113.975C260.609 107.87 258.453 101.205 253.069 98.3248C248.029 95.6345 241.587 97.0314 236.487 94.4446C230.796 91.5775 228.459 84.7871 224.157 80.0878C216.827 72.0686 204.104 71.0339 193.856 74.6554C183.608 78.277 175.231 85.727 167.126 92.9916L152.394 106.206C149.518 102.964 151.7 97.9885 153.256 93.9358C155.576 87.8611 156.084 81.3122 155.929 74.8624C155.804 69.6888 154.019 64.5798 154.123 59.5442C154.33 49.6108 162.211 39.9016 171.502 36.8966Z" fill="black"/>
</g>
<defs>
<clipPath id="clip0">
<rect width="473" height="350" fill="white"/>
</clipPath>
</defs>
</svg>
