<svg width="407" height="339" viewBox="0 0 407 339" fill="none" xmlns="http://www.w3.org/2000/svg">
<g clip-path="url(#clip0)">
<path d="M203.809 72.7943C200.98 74.8167 197.891 76.4476 194.625 77.6426C193.779 77.9596 192.92 78.2513 192.057 78.5133H153.775C153.61 78.2217 153.445 77.9342 153.28 77.6426C149.97 71.7629 146.94 65.6508 146.094 59.0018C145.1 51.182 147.888 42.3266 154.782 38.4843C155.686 37.9819 156.642 37.5807 157.634 37.2881C158.045 37.1655 158.464 37.0641 158.887 36.9753C161.471 36.4025 164.161 36.5274 166.681 37.3372C169.201 38.147 171.459 39.6126 173.224 41.5831C174.989 43.5537 176.196 45.9582 176.722 48.5493C177.248 51.1404 177.073 53.8247 176.217 56.3262C182.061 50.3408 180.969 40.6358 178.955 32.5244C176.936 24.4086 174.49 15.3842 178.599 8.09693C180.88 4.04332 184.896 1.52407 189.399 0.513849C189.539 0.48426 189.678 0.454661 189.814 0.425072C195.182 -0.658888 200.762 0.317599 205.442 3.15989C214.054 8.58304 218.481 18.8629 219.915 28.9357C222.23 45.1417 217.11 63.2245 203.809 72.7943Z" fill="#F2F2F2"/>
<path d="M162.006 42.1364C165.186 48.592 166.201 55.8987 164.901 62.9752C163.887 68.3186 161.619 73.3455 158.282 77.6426C158.053 77.9343 157.821 78.2259 157.579 78.5134H155.997C156.251 78.2259 156.5 77.9385 156.741 77.6426C159.734 74.0265 161.912 69.8095 163.127 65.278C164.343 60.7465 164.568 56.0068 163.788 51.3807C162.875 46.2651 160.767 41.4367 157.634 37.2882C158.045 37.1656 158.464 37.0641 158.887 36.9753C160.078 38.6 161.122 40.3271 162.006 42.1364Z" fill="white"/>
<path d="M200.034 46.8199C199.694 50.3942 198.834 53.8999 197.482 57.2266C196.234 60.1699 194.554 62.911 192.497 65.3592C188.218 70.3613 182.798 74.2637 176.695 76.7381C175.929 77.0593 175.15 77.3637 174.371 77.6426C173.508 77.9554 172.639 78.2457 171.765 78.5134H167.05C168.206 78.2555 169.348 77.9681 170.482 77.6426C173.284 76.8503 176.011 75.8164 178.633 74.5528C184.304 71.8684 189.228 67.8331 192.971 62.8019C196.987 57.2688 198.76 50.6114 199.06 43.8441C199.296 36.5548 198.532 29.2675 196.788 22.1854C195.099 14.9631 192.531 7.97461 189.141 1.37623C189.065 1.22684 189.049 1.05409 189.097 0.893633C189.145 0.733176 189.253 0.59726 189.399 0.513938C189.459 0.472417 189.526 0.443186 189.597 0.427947C189.669 0.412707 189.742 0.411766 189.814 0.425169C189.884 0.444933 189.949 0.479738 190.005 0.527178C190.06 0.574619 190.105 0.633555 190.135 0.6999C190.554 1.51572 190.965 2.33152 191.358 3.15577C194.645 10.0275 197.066 17.2799 198.565 24.7469C200.017 31.9496 200.795 39.4819 200.034 46.8199Z" fill="white"/>
<path d="M294.984 153.106C303.602 153.106 310.587 146.129 310.587 137.521C310.587 128.914 303.602 121.937 294.984 121.937C286.367 121.937 279.381 128.914 279.381 137.521C279.381 146.129 286.367 153.106 294.984 153.106Z" fill="#2F2E41"/>
<path d="M291.283 332.055L284.452 332.054L281.201 305.734L291.285 305.735L291.283 332.055Z" fill="#A0616A"/>
<path d="M293.026 338.669L270.997 338.668V338.39C270.997 337.265 271.219 336.152 271.65 335.113C272.081 334.074 272.712 333.13 273.509 332.334C274.305 331.539 275.25 330.908 276.29 330.478C277.331 330.048 278.445 329.826 279.571 329.826H279.572L293.026 329.827L293.026 338.669Z" fill="#2F2E41"/>
<path d="M337.297 326.239L330.785 328.302L319.721 304.194L329.332 301.15L337.297 326.239Z" fill="#A0616A"/>
<path d="M340.96 332.019L319.962 338.669L319.878 338.404C319.537 337.332 319.412 336.203 319.508 335.083C319.604 333.962 319.92 332.872 320.439 331.873C320.957 330.875 321.667 329.988 322.528 329.264C323.39 328.54 324.385 327.992 325.459 327.652L325.459 327.652L338.284 323.59L340.96 332.019Z" fill="#2F2E41"/>
<path d="M290.713 325.094H284.869C284.281 325.095 283.711 324.888 283.259 324.511C282.808 324.133 282.504 323.609 282.401 323.03L268.469 227.957L309.96 229.367L336.642 316.674C336.737 317.019 336.758 317.381 336.702 317.734C336.645 318.088 336.514 318.426 336.316 318.724C336.118 319.023 335.858 319.275 335.554 319.465C335.25 319.655 334.909 319.777 334.553 319.824L327.022 322.674C326.489 322.739 325.949 322.63 325.483 322.364C325.017 322.099 324.649 321.689 324.435 321.198L291.805 247.357C291.726 247.18 291.588 247.035 291.414 246.948C291.24 246.861 291.041 246.837 290.851 246.881C290.662 246.925 290.493 247.033 290.375 247.188C290.257 247.342 290.197 247.533 290.205 247.727L293.219 322.488C293.232 322.826 293.178 323.162 293.058 323.477C292.938 323.793 292.756 324.081 292.522 324.324C292.288 324.568 292.007 324.761 291.696 324.894C291.385 325.026 291.051 325.094 290.713 325.094Z" fill="#2F2E41"/>
<path d="M295.261 155.237C302.82 155.237 308.947 149.117 308.947 141.567C308.947 134.017 302.82 127.896 295.261 127.896C287.702 127.896 281.574 134.017 281.574 141.567C281.574 149.117 287.702 155.237 295.261 155.237Z" fill="#A0616A"/>
<path d="M293.428 238.857C286.348 238.858 277.837 237.071 268.705 231.368C268.235 231.074 267.875 230.633 267.681 230.114C267.488 229.595 267.471 229.027 267.634 228.498L276.595 199.541L276.483 175.978C276.829 172.208 278.36 168.645 280.857 165.797C283.355 162.95 286.69 160.965 290.385 160.126C290.548 160.089 290.711 160.053 290.877 160.017C293.657 159.404 296.545 159.478 299.29 160.231C302.035 160.985 304.555 162.396 306.632 164.341C308.761 166.305 310.386 168.75 311.371 171.472C312.355 174.194 312.67 177.113 312.289 179.982L310.032 214.595L313.095 231.932C313.19 232.457 313.115 232.999 312.879 233.477C312.643 233.955 312.259 234.345 311.784 234.589C306.082 237.42 299.796 238.882 293.428 238.857Z" fill="#4198CD"/>
<path d="M283.347 211.157C283.066 211.03 282.776 210.926 282.478 210.845L273.708 184.668L278.149 179.638L271.425 171.953L262.698 180.094C261.993 180.751 261.52 181.62 261.352 182.568C261.183 183.517 261.326 184.495 261.761 185.355L275.933 213.388C275.307 214.396 275.004 215.571 275.063 216.756C275.122 217.941 275.54 219.08 276.263 220.022C276.986 220.963 277.979 221.662 279.109 222.027C280.24 222.391 281.455 222.402 282.592 222.06C283.73 221.718 284.736 221.038 285.477 220.111C286.218 219.183 286.658 218.053 286.74 216.869C286.822 215.685 286.542 214.505 285.936 213.485C285.329 212.464 284.427 211.652 283.347 211.157V211.157Z" fill="#A0616A"/>
<path d="M273.227 183.755L264.94 174.188C264.704 173.916 264.53 173.596 264.429 173.251C264.328 172.905 264.303 172.542 264.355 172.186C264.407 171.83 264.536 171.489 264.732 171.187C264.928 170.885 265.187 170.629 265.491 170.436L276.147 163.67C277.548 162.473 279.367 161.88 281.205 162.021C283.044 162.161 284.751 163.024 285.954 164.42C287.156 165.816 287.755 167.632 287.619 169.468C287.483 171.305 286.624 173.013 285.229 174.218L277.024 183.749C276.789 184.022 276.498 184.241 276.17 184.392C275.843 184.542 275.487 184.62 275.126 184.62C274.766 184.621 274.41 184.544 274.082 184.394C273.754 184.245 273.462 184.027 273.227 183.755V183.755Z" fill="#4198CD"/>
<path d="M278.813 128.501C277.728 129.102 276.779 129.921 276.025 130.906C275.362 131.921 275.227 133.334 276.055 134.239C277.033 135.309 278.802 135.235 280.302 135.07L295.548 133.392L289.546 137.622L303.976 136.184C306.497 135.933 309.403 135.456 310.632 133.395C312.074 130.976 310.239 127.974 308.046 126.106C303.615 122.432 297.941 120.596 292.195 120.977C286.484 121.348 281.142 123.926 277.3 128.163L278.813 128.501Z" fill="#2F2E41"/>
<path d="M294.067 201.571H293.899V196.962C293.899 196.254 293.617 195.576 293.116 195.076C292.615 194.575 291.936 194.294 291.228 194.294H281.45C280.742 194.294 280.063 194.575 279.562 195.076C279.061 195.576 278.779 196.254 278.779 196.962V222.25C278.779 222.957 279.061 223.636 279.562 224.136C280.063 224.636 280.742 224.917 281.45 224.917H291.228C291.936 224.917 292.615 224.636 293.116 224.136C293.617 223.636 293.899 222.957 293.899 222.25V204.852H294.067L294.067 201.571Z" fill="#3F3D56"/>
<path d="M286.068 204.87C287.299 204.87 288.297 203.873 288.297 202.643C288.297 201.414 287.299 200.417 286.068 200.417C284.837 200.417 283.839 201.414 283.839 202.643C283.839 203.873 284.837 204.87 286.068 204.87Z" fill="white"/>
<path d="M288.225 208.842C288.532 208.874 288.835 208.931 289.133 209.011L309.942 190.846L308.654 184.265L318.344 181.025L321.758 192.454C322.033 193.378 322.002 194.366 321.668 195.269C321.334 196.173 320.715 196.945 319.905 197.468L293.495 214.508C293.525 215.695 293.193 216.862 292.543 217.855C291.892 218.847 290.955 219.619 289.855 220.067C288.755 220.514 287.544 220.617 286.384 220.361C285.225 220.105 284.17 219.502 283.362 218.632C282.553 217.763 282.029 216.669 281.859 215.494C281.688 214.32 281.88 213.122 282.408 212.059C282.936 210.996 283.775 210.119 284.814 209.544C285.853 208.97 287.043 208.725 288.225 208.842V208.842Z" fill="#A0616A"/>
<path d="M308.742 190.089C308.431 189.907 308.163 189.66 307.957 189.365C307.75 189.07 307.61 188.734 307.545 188.38L305.285 176.014C304.691 174.27 304.813 172.363 305.625 170.709C306.436 169.056 307.872 167.791 309.615 167.193C311.359 166.595 313.27 166.712 314.927 167.518C316.585 168.325 317.855 169.755 318.458 171.495L324.232 182.711C324.397 183.031 324.491 183.383 324.507 183.742C324.524 184.102 324.462 184.461 324.327 184.794C324.192 185.128 323.987 185.429 323.725 185.676C323.463 185.923 323.151 186.111 322.81 186.227L310.819 190.301C310.478 190.417 310.116 190.458 309.758 190.422C309.399 190.385 309.053 190.272 308.742 190.089Z" fill="#4198CD"/>
<path d="M207.91 153.849H111.288C108.924 153.849 106.656 154.787 104.984 156.457C103.312 158.127 102.372 160.392 102.372 162.754C102.372 165.116 103.312 167.381 104.984 169.051C106.656 170.721 108.924 171.66 111.288 171.66H197.963L205.029 182.508C205.181 182.749 205.391 182.948 205.641 183.086C205.89 183.224 206.171 183.297 206.456 183.298C206.627 183.299 206.798 183.274 206.963 183.226C207.323 183.125 207.639 182.908 207.863 182.609C208.086 182.31 208.205 181.946 208.2 181.573V171.654C210.538 171.578 212.753 170.587 214.367 168.895C215.98 167.203 216.863 164.945 216.825 162.609C216.787 160.272 215.831 158.044 214.163 156.406C212.496 154.767 210.25 153.848 207.91 153.849V153.849ZM207.91 170.513H207.047V181.573C207.048 181.696 207.008 181.817 206.934 181.917C206.86 182.016 206.756 182.089 206.637 182.124C206.518 182.16 206.391 182.155 206.275 182.112C206.159 182.069 206.06 181.989 205.993 181.884L198.593 170.513H111.288C109.229 170.513 107.254 169.696 105.798 168.241C104.341 166.787 103.523 164.814 103.523 162.757C103.523 160.7 104.341 158.727 105.798 157.272C107.254 155.818 109.229 155.001 111.288 155.001H207.91C209.97 155.001 211.945 155.818 213.401 157.272C214.857 158.727 215.675 160.7 215.675 162.757C215.675 164.814 214.857 166.787 213.401 168.241C211.945 169.696 209.97 170.513 207.91 170.513Z" fill="#3F3D56"/>
<path d="M165.353 115.939H8.91603C6.55209 115.939 4.28498 116.877 2.61342 118.546C0.941869 120.216 0.00280762 122.48 0.00280762 124.842C0.00280762 127.203 0.941869 129.467 2.61342 131.137C4.28498 132.806 6.55209 133.744 8.91603 133.744H10.3538V144.231C10.3479 144.603 10.4655 144.967 10.6882 145.266C10.911 145.565 11.2263 145.782 11.5853 145.884C11.7519 145.932 11.9245 145.956 12.0979 145.956C12.3828 145.956 12.663 145.885 12.9125 145.747C13.162 145.61 13.3726 145.412 13.5245 145.171L20.9582 133.744H165.353C167.717 133.744 169.984 132.806 171.656 131.137C173.327 129.467 174.266 127.203 174.266 124.842C174.266 122.48 173.327 120.216 171.656 118.546C169.984 116.877 167.717 115.939 165.353 115.939ZM165.353 132.598H20.3342L12.5605 144.542C12.4931 144.646 12.3938 144.726 12.2773 144.769C12.1609 144.812 12.0336 144.817 11.9145 144.782C11.7954 144.747 11.6908 144.674 11.6164 144.575C11.542 144.475 11.5018 144.355 11.5018 144.231V132.598H8.91603C6.85655 132.598 4.88142 131.781 3.42515 130.326C1.96888 128.871 1.15075 126.899 1.15075 124.842C1.15075 122.785 1.96888 120.812 3.42515 119.357C4.88142 117.903 6.85655 117.085 8.91603 117.085H165.353C167.412 117.085 169.388 117.903 170.844 119.357C172.3 120.812 173.118 122.785 173.118 124.842C173.118 126.899 172.3 128.871 170.844 130.326C169.388 131.781 167.412 132.598 165.353 132.598Z" fill="#CCCCCC"/>
<path d="M105.538 40.1083H8.91603C6.55209 40.1083 4.28498 41.0462 2.61343 42.7158C0.941878 44.3854 0.00280762 46.6499 0.00280762 49.011C0.00280762 51.3722 0.941878 53.6366 2.61343 55.3062C4.28498 56.9758 6.55209 57.9138 8.91603 57.9138H10.3538V68.4C10.3479 68.7726 10.4655 69.1367 10.6882 69.4356C10.911 69.7346 11.2263 69.9517 11.5853 70.0531C11.7517 70.103 11.9242 70.1293 12.0979 70.131C12.3832 70.1303 12.6636 70.0574 12.913 69.9192C13.1625 69.781 13.3728 69.582 13.5245 69.3407L20.9581 57.9138H105.538C107.902 57.9138 110.169 56.9758 111.84 55.3062C113.512 53.6366 114.451 51.3722 114.451 49.011C114.451 46.6499 113.512 44.3854 111.84 42.7158C110.169 41.0462 107.902 40.1083 105.538 40.1083ZM105.538 56.7672H20.3342L12.5605 68.7173C12.4919 68.8204 12.392 68.8988 12.2755 68.9408C12.159 68.9828 12.032 68.9863 11.9133 68.9508C11.7946 68.9152 11.6906 68.8425 11.6165 68.7433C11.5423 68.6441 11.5021 68.5238 11.5017 68.4V56.7672H8.91603C6.85654 56.7672 4.88141 55.95 3.42514 54.4955C1.96887 53.0409 1.15074 51.0681 1.15074 49.011C1.15074 46.954 1.96887 44.9811 3.42514 43.5266C4.88141 42.072 6.85654 41.2549 8.91603 41.2549H105.538C107.597 41.2549 109.572 42.072 111.029 43.5266C112.485 44.9811 113.303 46.954 113.303 49.011C113.303 51.0681 112.485 53.0409 111.029 54.4955C109.572 55.95 107.597 56.7672 105.538 56.7672Z" fill="#CCCCCC"/>
<path d="M207.91 78.0236H72.7546C70.3907 78.0236 68.1236 78.9615 66.4521 80.6311C64.7805 82.3007 63.8414 84.5651 63.8414 86.9263C63.8414 89.2875 64.7805 91.5519 66.4521 93.2215C68.1236 94.8911 70.3907 95.8291 72.7546 95.8291H195.723L205.029 110.128C205.181 110.369 205.391 110.568 205.641 110.707C205.89 110.845 206.171 110.918 206.456 110.918C206.628 110.917 206.798 110.891 206.963 110.84C207.323 110.74 207.64 110.524 207.864 110.225C208.087 109.926 208.206 109.561 208.2 109.187V95.8291C210.538 95.7533 212.753 94.7625 214.367 93.0704C215.98 91.3782 216.863 89.1204 216.825 86.7839C216.787 84.4474 215.831 82.2195 214.163 80.5807C212.496 78.9418 210.25 78.0234 207.91 78.0236V78.0236ZM207.91 94.6825H207.047V109.187C207.051 109.312 207.013 109.434 206.939 109.534C206.865 109.634 206.76 109.706 206.64 109.738C206.521 109.777 206.393 109.774 206.276 109.732C206.159 109.69 206.06 109.61 205.993 109.505L196.347 94.6825H72.7546C70.6952 94.6825 68.72 93.8653 67.2638 92.4107C65.8075 90.9562 64.9894 88.9834 64.9894 86.9263C64.9894 84.8692 65.8075 82.8964 67.2638 81.4419C68.72 79.9873 70.6952 79.1701 72.7546 79.1701H207.91C209.97 79.1701 211.945 79.9873 213.401 81.4419C214.857 82.8964 215.675 84.8692 215.675 86.9263C215.675 88.9834 214.857 90.9562 213.401 92.4107C211.945 93.8653 209.97 94.6825 207.91 94.6825H207.91Z" fill="#3F3D56"/>
<path d="M113.877 167.638C116.418 167.638 118.478 165.581 118.478 163.043C118.478 160.504 116.418 158.447 113.877 158.447C111.336 158.447 109.276 160.504 109.276 163.043C109.276 165.581 111.336 167.638 113.877 167.638Z" fill="#4198CD"/>
<path d="M127.68 167.638C130.221 167.638 132.281 165.581 132.281 163.043C132.281 160.504 130.221 158.447 127.68 158.447C125.139 158.447 123.079 160.504 123.079 163.043C123.079 165.581 125.139 167.638 127.68 167.638Z" fill="#4198CD"/>
<path d="M141.483 167.638C144.025 167.638 146.085 165.581 146.085 163.043C146.085 160.504 144.025 158.447 141.483 158.447C138.942 158.447 136.882 160.504 136.882 163.043C136.882 165.581 138.942 167.638 141.483 167.638Z" fill="#4198CD"/>
<path d="M150.028 122.568H24.2403C23.6152 122.568 23.0158 122.816 22.5738 123.258C22.1318 123.699 21.8834 124.298 21.8832 124.922V125.334C21.8834 125.958 22.1318 126.557 22.5738 126.999C23.0158 127.44 23.6152 127.688 24.2403 127.689H150.028C150.653 127.687 151.252 127.439 151.694 126.998C152.136 126.556 152.385 125.958 152.386 125.334V124.922C152.385 124.298 152.136 123.7 151.694 123.259C151.252 122.817 150.653 122.569 150.028 122.568Z" fill="#CCCCCC"/>
<path d="M101.431 46.1641H13.0229C12.3981 46.1652 11.7993 46.4136 11.3575 46.8549C10.9156 47.2962 10.6669 47.8944 10.6658 48.5185V48.9303C10.6669 49.5544 10.9156 50.1526 11.3574 50.5939C11.7992 51.0352 12.3981 51.2836 13.0229 51.2848H101.431C102.055 51.2836 102.654 51.0352 103.096 50.5939C103.538 50.1526 103.787 49.5544 103.788 48.9303V48.5185C103.787 47.8944 103.538 47.2962 103.096 46.8549C102.654 46.4136 102.055 46.1652 101.431 46.1641Z" fill="#CCCCCC"/>
<path d="M184.539 84.6526H96.1315C95.5066 84.6537 94.9078 84.9022 94.466 85.3434C94.0242 85.7847 93.7754 86.3829 93.7743 87.007V87.4189C93.7754 88.0429 94.0242 88.6411 94.466 89.0824C94.9078 89.5237 95.5066 89.7721 96.1315 89.7733H184.539C185.163 89.7719 185.762 89.5232 186.203 89.0818C186.643 88.6404 186.891 88.0424 186.891 87.4189V87.007C186.891 86.3835 186.643 85.7854 186.203 85.344C185.762 84.9026 185.163 84.654 184.539 84.6526Z" fill="#4198CD"/>
<path d="M406.443 339H194.13C193.982 339 193.841 338.941 193.736 338.837C193.632 338.732 193.573 338.591 193.573 338.443C193.573 338.296 193.632 338.154 193.736 338.05C193.841 337.945 193.982 337.887 194.13 337.887H406.443C406.59 337.887 406.732 337.945 406.837 338.05C406.941 338.154 407 338.296 407 338.443C407 338.591 406.941 338.732 406.837 338.837C406.732 338.941 406.59 339 406.443 339Z" fill="#3F3D56"/>
</g>
<defs>
<clipPath id="clip0">
<rect width="407" height="339" fill="white"/>
</clipPath>
</defs>
</svg>
